<svg xmlns="http://www.w3.org/2000/svg" width="575.175" height="114.337"><g data-name="Livello 2"><g data-name="Livello 1"><path d="M81.441 57.367c-1-3.54.45-5.4 2.07-8.15 3.83-5 7.7-10.19 12.05-15.14 4.07-4.06 9.13-7.92 14.8-7.86 8.43.09 15.19 0 24.67 0l11.3-24h-17.45c-5.91.18-28.41-2.08-56.83 12 5.42.76 8 3.87 7.85 9-.33 11.89-22.61 30.28-38.39 32-8.32.91-12.85-1.29-13.44-7.25-9.59 10.4-17.27 21.42-24.5 38.75-4.72 11.3-6.12 27.5 4.4 27.62h85.59l11.34-24.13h-58.44a2.42 2.42 0 0 1-2.46-2.61 2.51 2.51 0 0 1 2.46-2.65c1.06-.09 2.13-.07 3.19-.07h57.75l11.49-24h-32.44c-2.08.02-4.1-.21-5.01-3.51zm-63.23 18.38c-2.1.35-3.17-.49-3.15-2.8.08-3.93 5.53-10.17 9.19-10.5 2-.18 2.88.86 2.85 2.9-.1 3.81-5.22 9.75-8.89 10.4z" fill="#4c4b4b"/><path d="M187.201 90.327h-75.07l-11.37 24h75.15zm13.81-29.45h-75.07l-11.37 24h75.15zm13.78-29.38h-75.08l-11.36 24h75.15zm13.7-29.34h-75.08l-11.36 24h75.14z" fill="#4097d3"/><text transform="matrix(.91 0 -.41 .91 200.691 114.067)" font-size="175.59" font-weight="700" letter-spacing="-.02em" font-family="SegoeUI-Semibold,'Segoe UI'" fill="#4c4b4b">PTM</text></g></g></svg>
