<svg xmlns="http://www.w3.org/2000/svg" viewBox="0 0 647.38 317.89"><g data-name="Livello 2"><g data-name="Livello 1"><path d="M230.75 156.45c-2.75-10 1.28-15.31 5.85-23.09 10.85-14.2 21.81-28.87 34.15-42.89C282.28 79 296.63 68 312.69 68.2c23.89.25 43.05 0 69.91-.11l32-68-42.42-.03h-6.95c-16.73.51-80.48-5.88-161 34 15.36 2.16 22.65 11 22.25 25.56-.92 33.68-64.05 85.8-108.77 90.71-23.57 2.59-36.42-3.64-38.07-20.54-27.28 29.44-49 60.67-69.52 109.77-13.36 32-17.34 77.9 12.48 78.27h242.5l32.12-68.36-161.82.06c-1.26 0-2.52 0-3.77-.1-4.45-.43-7-3.06-7-7.36s2.5-7.1 7-7.49c3-.27 6-.21 9-.21l163.61-.12 32.57-67.93-91.91.09c-5.84.06-11.58-.6-14.15-9.96zM51.6 208.54c-6 1-9-1.4-8.94-7.94.21-11.14 15.66-28.82 26-29.75 5.53-.5 8.16 2.42 8.07 8.22-.13 10.81-14.73 27.74-25.13 29.47z" fill="#4c4b4b"/><path d="M530.4 249.84H317.69l-32.2 68.01h212.92l31.99-68.01zm39.13-83.42H356.82l-32.2 68h212.91l32-68zm39.04-83.25H395.86l-32.2 68h212.91l32-68zM647.38.04H434.67l-32.2 68h212.92l31.99-68z" fill="#4097d3"/></g></g></svg>
